<svg id="Layer_1" xmlns="http://www.w3.org/2000/svg" viewBox="0 0 307 120"><style>.st2{fill:#f1bd19}</style><g id="bh_logo"><path d="M12.4 109.6H.2V79.1h12.1c4.7 0 10.4 1.7 10.4 7.8 0 3.4-2 5.6-5 6.6v.1c3.5.6 6.2 3.1 6.2 7.1.1 6.6-5.7 8.9-11.5 8.9zM11 85H7.3v6.3h4c2.8 0 4.3-1.2 4.3-3.3 0-2.1-1.6-3-4.6-3zm.4 11.7H7.3v7h4.1c2.3 0 5.2-.6 5.2-3.6 0-2.6-2-3.4-5.2-3.4zm29.1-2.8c-.6-.2-1.2-.2-1.8-.2-3.8 0-5 3.1-5 4.9v11h-7.1V88.2h6.8v3.1h.1c1.1-2.2 3.2-3.7 5.8-3.7.6 0 1.2 0 1.5.2l-.3 6.1zm5-8.7c-2.3 0-4-1.8-4-3.9s1.8-3.9 4-3.9 4 1.7 4 3.9-1.8 3.9-4 3.9zM42 109.6V88.2h7v21.4h-7zm20.9 10.3c-3.7 0-8.1-1.2-11-3.4l3.5-5c2.1 1.8 4.7 2.7 7.1 2.7 4.1 0 6.1-2.4 6.1-6V107h-.1c-1.3 1.7-3.7 2.8-6.5 2.8-6.5 0-10.2-5.1-10.2-11S55.5 87.6 62 87.6c2.7 0 5.3 1.1 6.8 3.4h.1v-2.8h6.7v19.4c-.1 8.3-5.1 12.3-12.7 12.3zm.7-26.6c-3.2 0-5 2.5-5 5.4 0 2.8 1.8 5.5 5 5.5s5.2-2.5 5.2-5.5c0-2.9-2-5.4-5.2-5.4zm29.8 16.3V98c0-2.4-.6-4.5-3.1-4.5s-3.8 2-3.8 4.6v11.6h-7.1V77.1h7.1v13.8h.1c.9-1.7 3.2-3.3 6.1-3.3 5.8 0 7.8 4.5 7.8 8.8v13.2h-7.1zm18.3-16.1v8.2c0 2 .6 3 2.7 3 .7 0 1.5-.1 2.1-.3l.1 5.2c-.9.3-2.6.6-4.1.6-5.7 0-7.6-3.1-7.6-7.6v-9h-3.4v-5.3h3.4v-5.6h6.9v5.6h5v5.3l-5.1-.1zm35 16.1V96.9h-11.9v12.7h-7.4V79.1h7.4v11.5h11.9V79.1h7.4v30.4l-7.4.1zm22.3.7c-6.5 0-11.9-4.5-11.9-11.5s5.4-11.3 11.9-11.3 11.9 4.3 11.9 11.3-5.4 11.5-11.9 11.5zm0-17c-3.3 0-5 2.7-5 5.5s1.8 5.5 5.1 5.5 5.1-2.8 5.1-5.5-1.9-5.5-5.2-5.5zm28.4.6c-.6-.2-1.2-.2-1.8-.2-3.8 0-5 3.1-5 4.9v11h-7.1V88.2h6.8v3.1h.1c1.1-2.2 3.2-3.7 5.8-3.7.6 0 1.2 0 1.5.2l-.3 6.1zm5-8.7c-2.3 0-4-1.8-4-3.9s1.8-3.9 4-3.9 4 1.7 4 3.9-1.8 3.9-4 3.9zm-3.5 24.4V88.2h7.1v21.4h-7.1zm9.5 0v-5.5l10.1-10.5h-9.7v-5.4h18.3v5.3l-10.4 10.7h10.8v5.5l-19.1-.1zm32.3.7c-6.5 0-11.9-4.5-11.9-11.5s5.4-11.3 11.9-11.3 11.9 4.3 11.9 11.3-5.4 11.5-11.9 11.5zm0-17c-3.3 0-5 2.7-5 5.5s1.8 5.5 5.1 5.5 5.1-2.8 5.1-5.5-1.9-5.5-5.2-5.5zm28.6 16.3V97.9c0-2.4-.6-4.5-3.2-4.5-2.5 0-3.8 2.2-3.8 4.6v11.6h-7.1V88.2h6.8v3h.1c1-1.9 3.4-3.6 6.4-3.6 5.8 0 7.8 4.5 7.8 8.8v13.2h-7zm23.3-15.1c-1.1-1.1-2.8-1.9-4.5-1.9-1.3 0-2.7.5-2.7 1.7s1.2 1.5 3.9 2.2c3.3.7 6.8 2.4 6.8 6.5 0 5.4-4.8 7.3-9.2 7.3-3.5 0-7.1-1.2-9.3-3.3l4-4.2c1.2 1.4 3.2 2.4 5.2 2.4 1.2 0 2.5-.5 2.5-1.8s-1.3-1.8-4.3-2.5-6.2-2.2-6.2-6.2c0-5.1 4.8-7.2 8.9-7.2 3.2 0 6.5 1 8.6 3l-3.7 4z" fill="#17475f"/><path id="SVGID_15_" d="M.6 68.3c33 3.3 55.8-14.1 83.9-14.1 20.6 0 32.3 8.9 48 10.7v.7c-18.5.3-30-4.8-48.2-4.8-22 0-46.4 10.7-64.3 10.8C6.2 71.7 1.2 69.1.6 69v-.7z" fill="#008540"/><path id="SVGID_17_" class="st2" d="M56.4 26.6c-23 5.3-25.3 26.8-24.6 35.4 2.5-.5 5-1.2 7.2-1.9-.1-7.8 2.7-22.2 19.3-26.3 17.3-4.2 27.2 9.3 30.1 16.6 2.6.1 5 .3 7.5.8-.2-5.6-13.6-30.7-39.5-24.6"/><path id="SVGID_19_" class="st2" d="M4.6 50c.2-1.1 1-2.5 3.4-2.1 3.4.6 16.9 4 16.5 6-.2 1.1-1.9 2.6-17.2-.5-2.9-.5-2.8-2.7-2.7-3.4"/><path id="SVGID_21_" class="st2" d="M18.2 20.4c.5-.9 2-1.9 4.1-.6 2.9 1.8 14.1 9.7 12.6 12-.2.3-1.7.2-15.5-7.2-2.6-1.3-1.6-3.5-1.2-4.2"/><path id="SVGID_23_" class="st2" d="M52.3.1c1.1-.3 2.8.3 3.3 2.8.7 3.3 2.6 16.8.1 17.1-.2 0-.8-.3-1.8-2.5-1-2.3-2.5-8.6-3.9-13.3-.7-2.9 1.6-4 2.3-4.1"/><path id="SVGID_25_" class="st2" d="M91.1 5.8c1.1.6 2.1 2.2.5 4.4-2.1 2.7-9.1 14.1-11.1 12.7-.2-.1-.6-1.1 0-3.4s3.7-7.4 6.5-12.3c1.4-2.5 3.3-1.8 4.1-1.4"/><path id="SVGID_27_" class="st2" d="M115.6 27.9c.7 1.1.8 3.1-1.6 4.2-3.1 1.5-14.6 8.1-15.8 5.9-.1-.2 0-1.2 1.8-2.8 1.9-1.6 6.5-4.9 11.2-7.9 2.4-1.5 3.9-.1 4.4.6"/><path d="M303.7 106.9c0 .4-.1.7-.2 1-.1.3-.3.6-.6.8-.2.2-.5.4-.9.6-.3.1-.7.2-1.1.2-.4 0-.7-.1-1.1-.2-.3-.1-.6-.3-.9-.6-.2-.2-.4-.5-.6-.8-.1-.3-.2-.7-.2-1 0-.4.1-.7.2-1.1.1-.3.3-.6.6-.9.2-.2.5-.4.9-.6.3-.1.7-.2 1.1-.2.4 0 .7.1 1.1.2.3.1.6.3.9.6.2.2.4.5.6.9.1.4.2.8.2 1.1zm-.4 0c0-.3-.1-.6-.2-.9-.1-.3-.3-.5-.5-.7-.2-.2-.4-.4-.7-.5-.3-.1-.6-.2-.9-.2-.3 0-.6.1-.9.2-.3.1-.5.3-.7.5-.2.2-.4.5-.5.7-.1.3-.2.6-.2.9 0 .3.1.6.2.9.1.3.3.5.5.7.2.2.5.4.7.5.3.1.6.2.9.2.3 0 .6-.1.9-.2.3-.1.5-.3.7-.5.2-.2.4-.4.5-.7.1-.3.2-.6.2-.9zm-1.7 1.5l-.6-1.1h-.3v1.1h-.8v-3.1h1.8c.2 0 .3.1.4.2l.3.3c.1.1.1.3.1.5s-.1.4-.2.5c-.1.1-.3.3-.4.3l.8 1.3h-1.1zm-.1-2.1c0-.1 0-.2-.1-.2s-.2-.1-.3-.1h-.5v.6h.5c.1 0 .2 0 .3-.1 0 0 .1-.1.1-.2z" fill="#1a475f"/></g></svg>